<svg xmlns="http://www.w3.org/2000/svg" width="512" height="512" viewBox="0 0 47 47"><style>.a{fill:#FFF;}</style><path d="M44.8 42.7H2.1C1 42.7 0 43.7 0 44.9c0 1.2 1 2.1 2.1 2.1h42.7c1.2 0 2.1-1 2.1-2.1C47 43.7 46 42.7 44.8 42.7z" class="a"/><path d="M4.8 37.2c-1.2 0-2.1 1-2.1 2.1s1 2.1 2.1 2.1h37.4c1.2 0 2.1-1 2.1-2.1s-1-2.1-2.1-2.1h-0.5V17.9h0.5c0.6 0 1.1-0.5 1.1-1.1s-0.5-1.1-1.1-1.1H4.8c-0.6 0-1.1 0.5-1.1 1.1s0.5 1.1 1.1 1.1h0.5v19.2H4.8zM37.4 17.9v19.2h-6.4V17.9H37.4zM26.7 17.9v19.2h-6.4V17.9H26.7zM9.6 17.9h6.4v19.2H9.6V17.9z" class="a"/><path d="M2.1 13.9h42.7c0 0 0 0 0 0 1.2 0 2.1-1 2.1-2.1 0-0.9-0.6-1.7-1.4-2l-21.2-9.5c-0.6-0.2-1.2-0.2-1.8 0L1.3 9.8c-0.9 0.4-1.4 1.4-1.2 2.4C0.3 13.2 1.1 13.9 2.1 13.9z" class="a"/></svg>
