<svg xmlns="http://www.w3.org/2000/svg" width="512" height="512" viewBox="0 0 511.6 511.6"><style>.a{fill:#FFF;}</style><path d="M18.8 128.5C6.3 141 0 156.1 0 173.6v237.5c0 17.5 6.3 32.5 18.8 45.1 12.6 12.6 27.6 18.8 45.1 18.8h9.1V109.6h-9.1C46.4 109.6 31.4 115.9 18.8 128.5z" class="a"/><path d="M365.4 64c0-7.6-2.7-14.1-8-19.4 -5.3-5.3-11.8-8-19.4-8H173.6c-7.6 0-14.1 2.7-19.4 8 -5.3 5.3-8 11.8-8 19.4v45.7H100.5V475.1h310.6V109.6h-45.7V64zM182.7 73.1h146.2v36.5H182.7V73.1zM365.4 319.8c0 2.7-0.9 4.9-2.6 6.6 -1.7 1.7-3.9 2.6-6.6 2.6h-64v64c0 2.7-0.9 4.9-2.6 6.6 -1.7 1.7-3.9 2.6-6.6 2.6H228.4c-2.7 0-4.9-0.9-6.6-2.6 -1.7-1.7-2.6-3.9-2.6-6.6v-64h-64c-2.7 0-4.9-0.9-6.6-2.6 -1.7-1.7-2.6-3.9-2.6-6.6v-54.8c0-2.7 0.9-4.9 2.6-6.6 1.7-1.7 3.9-2.6 6.6-2.6h64V191.9c0-2.7 0.9-4.9 2.6-6.6 1.7-1.7 3.9-2.6 6.6-2.6h54.8c2.7 0 4.9 0.9 6.6 2.6 1.7 1.7 2.6 3.9 2.6 6.6v64h64c2.7 0 4.9 0.9 6.6 2.6 1.7 1.7 2.6 3.9 2.6 6.6v54.8H365.4z" class="a"/><path d="M492.8 128.5c-12.6-12.6-27.6-18.8-45.1-18.8h-9.1V475.1h9.1c17.5 0 32.5-6.3 45.1-18.8 12.6-12.6 18.8-27.6 18.8-45.1v-237.5C511.6 156.1 505.3 141 492.8 128.5z" class="a"/></svg>
