<svg xmlns="http://www.w3.org/2000/svg" viewBox="0 0 60 60" width="512" height="512"><style>.a{fill:#FFF;}</style><path d="M8 22c-4.4 0-8 3.6-8 8s3.6 8 8 8 8-3.6 8-8S12.4 22 8 22zM8 36c-3.3 0-6-2.7-6-6s2.7-6 6-6 6 2.7 6 6S11.3 36 8 36z" class="a"/><path d="M52 22c-4.4 0-8 3.6-8 8s3.6 8 8 8 8-3.6 8-8S56.4 22 52 22zM52 36c-3.3 0-6-2.7-6-6s2.7-6 6-6 6 2.7 6 6S55.3 36 52 36z" class="a"/><path d="M30 22c-4.4 0-8 3.6-8 8s3.6 8 8 8 8-3.6 8-8S34.4 22 30 22zM30 36c-3.3 0-6-2.7-6-6s2.7-6 6-6 6 2.7 6 6S33.3 36 30 36z" class="a"/></svg>
