<svg xmlns="http://www.w3.org/2000/svg" width="512" height="512" viewBox="0 0 47.9 47.9"><style>.a{fill:#FFF;}</style><path d="M13.4 15.5l1.4 1.1 1.5-2h9.7l1.4 2.7 1.5-0.8 -1.2-2.3 3.3-3.8 -1.3-1.1 -3.2 3.6H21.7l-0.1-6.9c0.1 0.1 0.3 0.1 0.5 0.1 0.4 0 0.7-0.2 0.8-0.5 0.1 0.3 0.5 0.5 0.8 0.5 0.4 0 0.7-0.2 0.8-0.5 0.1 0.4 0.5 0.6 0.9 0.6 0.4 0 0.7-0.2 0.8-0.5 0.1 0.3 0.5 0.5 0.8 0.5 0.5 0 0.9-0.4 0.9-0.9 0 0 0-0.1 0-0.1 0 0 0 0 0 0 0-2.2-3.2-4.6-6.9-4.6 -3.8 0-6.7 2.5-6.7 4.7 0 0 0 0 0 0 0.1 0.5 0.5 0.8 0.9 0.8 0.4 0 0.7-0.2 0.8-0.5 0.2 0.3 0.5 0.5 0.8 0.5 0.4 0 0.7-0.2 0.8-0.5 0.1 0.4 0.5 0.6 0.9 0.6 0.4 0 0.7-0.2 0.8-0.5 0.1 0.3 0.5 0.5 0.8 0.5 0.2 0 0.4-0.1 0.5-0.1l0.1 6.9h-5.6L13.4 15.5z" class="a"/><path d="M34.4 23.8l0.5 0.9c0 0 2.8-1.6 4.8-0.6 1.3 0.7 2.6 0.9 3.6 0.9 1.6 0 2.7-0.5 2.8-0.5l-0.4-0.9c0 0-2.6 1.2-5.5-0.3C37.6 21.9 34.5 23.7 34.4 23.8z" class="a"/><path d="M43.7 36.6c-1.7 1.2-4.6 0.6-4.6 0.6l-0.2 1c0.1 0 0.8 0.2 1.9 0.2 1.1 0 2.4-0.2 3.5-0.9 1.5-1 2.6 0.4 2.8 0.5l0.8-0.6C47.2 36.6 45.6 35.4 43.7 36.6z" class="a"/><path d="M39.3 41.8l0.5 0.9c2.3-1.3 3.3-0.2 3.4-0.1l0.8-0.6C43.9 41.8 42.4 40 39.3 41.8z" class="a"/><path d="M41.7 32.8l-0.2 1c0.2 0.1 0.5 0.1 0.7 0.1 0.6 0 1-0.2 1.3-0.4 0.5-0.3 0.9-0.5 2.4 0.2l0.4-0.9c-1.8-0.9-2.5-0.6-3.3-0.2C42.6 32.8 42.3 32.9 41.7 32.8z" class="a"/><path d="M46.1 25.7c0.1-2-3.5 4.4-3.5 4.4h4.9C47.5 30.1 46 27.7 46.1 25.7z" class="a"/><path d="M39.9 29.8c-0.5-2.4-2.3-3.9-4.7-3.9 0 0-0.1 0-0.1 0l0.1 4c0.4 0 0.6 0 0.8 0.7 0.5 2.5-2.1 8.8-7.7 11.1 -6.9 2.8-11.9 1.6-15 0.1 -2.7-1.3-4.4-3.2-5.4-4.9l2.7-0.3c0 0-5.4-7.1-5.7-8.7C4.7 26.2 0.7 37.7 0.7 37.7l3-0.3c1.3 3.3 4.2 6.2 7.9 8 2.7 1.3 5.6 2 8.7 2 3.1 0 6.3-0.6 9.5-1.9C36.7 42.6 40.9 34.7 39.9 29.8z" class="a"/><path d="M2.8 5.6c-1.9 1.3-1.8 4.3-1.2 4.7 0.5 0.3 3-0.7 4.1-2l0.7 1.4L5.9 9.8l0.8 1.7 -0.4 0.1 0.9 1.9 -0.4 0.1 1 2.1 -0.3 0.1 1.1 2.3 -0.6 0.2 1.3 2.7 -0.3 0.1 1 2.1c-0.7 1.6-1.1 3.3-1.1 5.2 0 6.9 5.6 12.5 12.5 12.5s12.5-5.6 12.5-12.5c0-1.8-0.4-3.5-1.1-5l1.1-1.5 -0.6-0.3 1.2-1.6 -0.4-0.2 1.1-1.4 -0.4-0.2 1-1.3 -0.3-0.1 0.9-1.2 -0.3-0.1 0.8-1 -0.1-0.1 0.2-0.2c0.3 1.2 1.1 2.1 1.5 2.1 0.6 0 1.7-2 0.9-3.5 0.8 0.7 1.8 1.5 2 1 0.2-0.4-0.1-1.6-0.7-2.3 0.7-0.3 1.1-0.7 0.5-1.1 -0.6-0.5-1.4-0.3-2 0.2 0.3-0.7 0.4-1.6-0.4-2.2 -0.7-0.6-1-0.2-1.2 0.5 -0.9-0.4-2-0.5-2.4-0.4 -0.6 0.1-0.3 0.9 0.8 1.8 -1.6-0.3-3.1 1.2-3 1.7 0.1 0.4 1.9 1.1 3.1 1.1l-0.4 1 -0.3-0.2 -0.5 1.2 -0.3-0.1 -0.5 1.4 -0.3-0.1 -0.6 1.5 -0.2-0.1 -0.6 1.6 -0.4-0.2 -0.7 1.9 -0.2-0.1 -0.1 0.3c-1.2-1.6-2.8-2.9-4.6-3.7 0 0 0 0-0.1-0.1l0 0c-1.6-0.8-3.4-1.2-5.3-1.2 -0.3 0-0.6 0-0.8 0l0 0v0c-3.4 0.2-6.4 1.8-8.5 4.2l-0.5-2.9 -0.6 0.2 -0.4-2.5 -0.6 0.2 -0.4-2.3 -0.4 0.1 -0.4-2.1 -0.4 0.1L8.1 9.1 7.9 9.2 7.9 8.8c1.5 0.9 3.3 1.1 3.7 0.7 0.6-0.5-0.4-3.8-2.8-4.4 1.5-0.1 3.3-0.3 3-1.1 -0.3-0.6-1.8-1.5-3.1-1.6 0.4-1 0.3-1.8-0.7-1.7C6.9 0.8 6.4 1.8 6.2 2.9 5.8 1.8 5 0.9 3.5 1 2.3 1.1 2.3 1.8 2.9 2.6c-1.3 0.5-2.5 1.5-2.8 2C-0.3 5.3 0.7 5.8 2.8 5.6zM36.8 12.8l-0.1 0.2 -0.3-0.1C36.5 12.8 36.7 12.8 36.8 12.8zM10 28.7c0.4-0.2 1.4-0.8 3-1.3 0 0.3 0 0.7 0 1 0 0.6 0 1.1 0 1.6 -1.6-0.5-2.5-1-3-1.2C10 28.8 10 28.8 10 28.7zM10.1 30c0.7 0.3 1.7 0.7 3 1.1 0.1 1.4 0.4 2.6 0.7 3.6 -1.6-0.6-2.5-1.3-2.7-1.5C10.5 32.3 10.2 31.2 10.1 30zM12.1 35.2c0.5 0.3 1.2 0.6 2 0.8 0.3 0.8 0.6 1.4 0.9 2C13.9 37.2 12.9 36.3 12.1 35.2zM18 25.5c-1.5 0.1-2.8 0.4-3.9 0.6 0.1-1.6 0.4-3 0.8-4.1 1-0.3 2.3-0.6 3.8-0.8C18.3 22.4 18.1 23.8 18 25.5zM18.7 35.9c-1.5-0.2-2.7-0.4-3.7-0.8 -0.3-1-0.6-2.3-0.8-3.8 1.1 0.3 2.4 0.5 3.9 0.6C18.2 33.6 18.4 34.9 18.7 35.9zM17.9 26.5c0 0.6-0.1 1.3-0.1 1.9 0 0.9 0 1.8 0.1 2.6 -1.5-0.1-2.8-0.4-3.9-0.6 0-0.6-0.1-1.2-0.1-1.9 0-0.4 0-0.9 0-1.3C15.1 26.9 16.4 26.7 17.9 26.5zM16.9 39c-0.2-0.2-0.9-1.1-1.5-2.6 1 0.3 2.2 0.5 3.6 0.6 0.4 1.4 0.9 2.3 1.2 2.9C19 39.7 17.9 39.5 16.9 39zM21.6 26.3c0.7 0 1.4 0 2.1 0.1 0 0.7 0.1 1.4 0.1 2.2 0 0.9 0 1.7-0.1 2.5 -0.7 0-1.4 0.1-2.2 0.1 -0.9 0-1.7 0-2.5-0.1 -0.1-0.8-0.1-1.7-0.1-2.7 0-0.7 0-1.4 0.1-2C19.8 26.3 20.7 26.3 21.6 26.3zM19 25.4c0.1-1.6 0.4-3 0.7-4.2 0.5 0 1.1-0.1 1.7-0.1 0.5 0 1.1 0 1.5 0 0.3 1.1 0.5 2.5 0.7 4.2 -0.6 0-1.3-0.1-2-0.1C20.7 25.3 19.8 25.3 19 25.4zM23.6 32.1c-0.2 1.6-0.4 2.9-0.7 3.9 -0.4 0-0.9 0-1.4 0 -0.6 0-1.2 0-1.7-0.1 -0.3-1.1-0.5-2.4-0.7-3.9 0.7 0 1.5 0.1 2.4 0.1C22.2 32.2 22.9 32.2 23.6 32.1zM21.4 39.8c-0.2-0.2-0.7-1.1-1.3-2.8 0.4 0 0.9 0 1.4 0 0.4 0 0.7 0 1.1 0C22.1 38.6 21.6 39.5 21.4 39.8zM26.1 39c-1.1 0.5-2.3 0.8-3.5 0.9 0.3-0.6 0.8-1.5 1.2-2.9 1.5-0.1 2.7-0.3 3.8-0.6C26.9 37.9 26.2 38.8 26.1 39zM24 36c0.3-1.1 0.5-2.4 0.6-3.9 1.6-0.1 3-0.4 4.1-0.6 -0.2 1.5-0.5 2.8-0.8 3.8C26.9 35.5 25.5 35.8 24 36zM24.7 26.4c1.7 0.1 3.1 0.4 4.2 0.7 0 0.4 0 0.8 0 1.2 0 0.7 0 1.3-0.1 2 -1.1 0.3-2.5 0.5-4.2 0.7 0-0.8 0.1-1.6 0.1-2.4C24.8 27.8 24.7 27.1 24.7 26.4zM24.6 25.4c-0.1-1.6-0.4-3-0.6-4.1 1.6 0.2 3 0.5 4.1 0.8 0.3 1.1 0.6 2.4 0.7 4C27.7 25.8 26.3 25.5 24.6 25.4zM28 37.9c0.3-0.5 0.5-1.1 0.8-1.9 0.8-0.3 1.4-0.5 1.9-0.8C29.9 36.3 29 37.2 28 37.9zM31.8 33.3c-0.3 0.2-1.1 0.9-2.7 1.5 0.3-1 0.5-2.3 0.7-3.7 1.4-0.4 2.4-0.9 3-1.2C32.7 31.1 32.3 32.2 31.8 33.3zM29.9 30c0-0.5 0.1-1.1 0.1-1.7 0-0.3 0-0.6 0-1 1.6 0.5 2.5 1 2.9 1.3C32.6 28.8 31.7 29.4 29.9 30zM32 24c0.5 1.1 0.7 2.2 0.9 3.5 -0.6-0.3-1.6-0.8-3-1.2 -0.1-1.5-0.3-2.7-0.6-3.8C31 23.2 31.9 23.9 32 24zM30.9 22l0 0.1c-0.5-0.3-1.2-0.6-2-0.8 -0.3-0.9-0.6-1.6-0.9-2.1C29.2 19.9 30.2 20.9 30.9 22zM26.2 18c0.3 0.4 0.9 1.3 1.5 2.9 -1.1-0.3-2.4-0.5-4-0.7 -0.4-1.5-0.9-2.5-1.2-3.2C23.8 17.2 25 17.5 26.2 18zM21.2 17c0.1 0 0.1 0 0.2 0 0.3 0.4 0.8 1.4 1.3 3.1 -0.4 0-0.8 0-1.3 0 -0.5 0-1 0-1.4 0C20.4 18.5 20.9 17.5 21.2 17zM16.8 18c1-0.4 2.1-0.7 3.2-0.9 -0.3 0.7-0.8 1.7-1.1 3.1 -1.4 0.1-2.6 0.3-3.6 0.6C15.9 19.1 16.6 18.2 16.8 18zM14.9 19c-0.3 0.6-0.6 1.3-0.9 2.2 -0.9 0.3-1.6 0.6-2.1 0.9C12.7 20.9 13.7 19.9 14.9 19zM10.8 24l0 0c0 0 0.9-0.8 2.8-1.6 -0.3 1.1-0.5 2.4-0.6 3.9 -1.4 0.4-2.4 0.8-3 1.2C10.1 26.3 10.4 25.1 10.8 24zM6.1 7.9l0.1 0.3L5.8 8.3C5.9 8.2 6 8 6.1 7.9z" class="a"/></svg>
