<?xml version="1.0" encoding="iso-8859-1"?>
<!-- Generator: Adobe Illustrator 16.0.0, SVG Export Plug-In . SVG Version: 6.00 Build 0)  -->
<!DOCTYPE svg PUBLIC "-//W3C//DTD SVG 1.1//EN" "http://www.w3.org/Graphics/SVG/1.1/DTD/svg11.dtd">
<svg xmlns="http://www.w3.org/2000/svg" xmlns:xlink="http://www.w3.org/1999/xlink" version="1.1" id="Capa_1" x="0px" y="0px" width="512px" height="512px" viewBox="0 0 47.85 47.85" style="enable-background:new 0 0 47.85 47.85;" xml:space="preserve">
<g>
	<g>
		<path d="M13.367,15.528l1.357,1.06l1.535-1.965h9.712l1.409,2.714l1.527-0.794l-1.204-2.32l3.346-3.764l-1.287-1.144l-3.188,3.586    H21.67l-0.067-6.928c0.145,0.092,0.315,0.145,0.499,0.143c0.373-0.004,0.69-0.229,0.834-0.548    c0.149,0.316,0.472,0.535,0.844,0.532c0.354-0.005,0.654-0.207,0.809-0.499c0.136,0.351,0.474,0.6,0.871,0.596    c0.373-0.004,0.689-0.229,0.835-0.548c0.148,0.316,0.471,0.535,0.843,0.532c0.512-0.006,0.923-0.426,0.918-0.937    c-0.001-0.039-0.008-0.076-0.013-0.114c0.004,0,0.007,0,0.011,0c-0.022-2.243-3.171-4.644-6.932-4.606    c-3.761,0.036-6.71,2.496-6.688,4.74c0.012,0,0.022,0,0.034-0.001c0.061,0.457,0.45,0.809,0.922,0.805    c0.373-0.004,0.69-0.229,0.834-0.548c0.15,0.316,0.472,0.535,0.845,0.531c0.353-0.004,0.653-0.206,0.808-0.498    c0.134,0.351,0.474,0.599,0.871,0.595c0.373-0.003,0.689-0.227,0.834-0.547c0.149,0.316,0.472,0.534,0.844,0.531    c0.183-0.002,0.351-0.058,0.493-0.15l0.067,6.919h-5.565L13.367,15.528z" fill="#FFFFFF"/>
		<path d="M34.4,23.772l0.517,0.857c0.026-0.018,2.763-1.633,4.828-0.56c1.313,0.685,2.568,0.894,3.614,0.894    c1.596,0,2.703-0.487,2.778-0.521l-0.412-0.912c-0.024,0.014-2.63,1.157-5.52-0.347C37.647,21.854,34.53,23.694,34.4,23.772z" fill="#FFFFFF"/>
		<path d="M43.731,36.641c-1.717,1.157-4.558,0.577-4.586,0.572l-0.206,0.979c0.064,0.015,0.842,0.173,1.862,0.173    c1.077,0,2.425-0.178,3.487-0.894c1.478-0.997,2.649,0.384,2.777,0.543l0.783-0.621C47.223,36.597,45.553,35.419,43.731,36.641z" fill="#FFFFFF"/>
		<path d="M39.334,41.753l0.5,0.864c2.296-1.325,3.346-0.16,3.386-0.114l0.772-0.636C43.93,41.792,42.399,39.985,39.334,41.753z" fill="#FFFFFF"/>
		<path d="M41.701,32.783l-0.215,0.978c0.246,0.054,0.464,0.077,0.66,0.077c0.587,0,0.978-0.202,1.306-0.373    c0.525-0.272,0.939-0.488,2.399,0.242l0.447-0.896c-1.773-0.886-2.519-0.643-3.308-0.235    C42.606,32.776,42.326,32.922,41.701,32.783z" fill="#FFFFFF"/>
		<path d="M46.078,25.728c0.056-1.991-3.498,4.366-3.498,4.366h4.879C47.459,30.094,46.025,27.719,46.078,25.728z" fill="#FFFFFF"/>
		<path d="M39.933,29.806c-0.492-2.425-2.271-3.919-4.654-3.919c-0.026,0-0.055,0-0.082,0l0.059,4    c0.358-0.011,0.611-0.008,0.758,0.713c0.512,2.526-2.088,8.81-7.693,11.085c-6.863,2.762-11.919,1.575-14.953,0.094    c-2.693-1.314-4.45-3.17-5.442-4.875l2.696-0.297c0,0-5.419-7.061-5.654-8.725C4.732,26.219,0.698,37.7,0.698,37.7l2.997-0.33    c1.34,3.261,4.211,6.193,7.916,8.004c2.666,1.302,5.621,1.952,8.714,1.952c3.076,0,6.29-0.645,9.493-1.933    C36.725,42.589,40.927,34.711,39.933,29.806z" fill="#FFFFFF"/>
		<path d="M2.786,5.607c-1.881,1.297-1.783,4.331-1.173,4.677c0.535,0.302,3.032-0.704,4.148-1.972l0.656,1.37L5.921,9.84    l0.796,1.665l-0.418,0.134l0.926,1.938l-0.401,0.128l1.018,2.128l-0.308,0.098l1.104,2.31l-0.58,0.185l1.282,2.685l-0.259,0.083    l0.99,2.072c-0.729,1.585-1.148,3.342-1.148,5.198c0,6.893,5.607,12.5,12.5,12.5s12.5-5.607,12.5-12.5    c0-1.779-0.379-3.472-1.054-5.005l1.149-1.522l-0.559-0.285l1.244-1.65l-0.381-0.192l1.071-1.42l-0.369-0.188l0.987-1.311    l-0.263-0.134l0.896-1.19l-0.274-0.139l0.772-1.026l-0.132-0.065l0.181-0.238c0.264,1.156,1.066,2.098,1.482,2.137    c0.551,0.049,1.747-2.024,0.855-3.46c0.774,0.674,1.829,1.459,2.043,0.959c0.188-0.433-0.102-1.582-0.714-2.312    c0.693-0.303,1.074-0.684,0.525-1.131c-0.607-0.498-1.354-0.257-2.021,0.197c0.349-0.734,0.419-1.559-0.355-2.223    c-0.654-0.563-0.993-0.219-1.155,0.462c-0.896-0.363-2.008-0.461-2.364-0.396c-0.556,0.098-0.288,0.877,0.817,1.784    c-1.59-0.294-3.09,1.207-2.965,1.67c0.109,0.404,1.856,1.137,3.054,1.071l-0.374,0.976l-0.326-0.165l-0.457,1.185l-0.273-0.139    l-0.53,1.377l-0.265-0.135l-0.583,1.516l-0.201-0.103l-0.634,1.644l-0.382-0.194l-0.734,1.909l-0.172-0.086l-0.102,0.263    c-1.202-1.575-2.766-2.86-4.569-3.723c-0.023-0.026-0.043-0.048-0.052-0.055l-0.021,0.021c-1.61-0.757-3.406-1.183-5.3-1.183    c-0.278,0-0.553,0.013-0.826,0.03l-0.001-0.001v0.001c-3.369,0.222-6.369,1.789-8.488,4.161l-0.496-2.862l-0.579,0.186    l-0.438-2.522l-0.563,0.179l-0.402-2.324l-0.4,0.128l-0.366-2.115l-0.418,0.134L8.128,9.14L7.93,9.204L7.856,8.781    c1.479,0.914,3.267,1.068,3.716,0.689c0.598-0.504-0.403-3.815-2.795-4.384c1.475-0.091,3.345-0.349,3.029-1.075    c-0.272-0.629-1.768-1.509-3.141-1.639c0.367-1.003,0.342-1.773-0.672-1.68C6.869,0.794,6.385,1.792,6.204,2.923    C5.773,1.824,4.977,0.916,3.51,1.015C2.27,1.098,2.297,1.788,2.854,2.646c-1.271,0.53-2.469,1.546-2.755,1.968    C-0.347,5.267,0.738,5.794,2.786,5.607z M36.765,12.807l-0.071,0.184l-0.269-0.138C36.544,12.846,36.657,12.834,36.765,12.807z     M9.958,28.733c0.369-0.226,1.351-0.758,2.997-1.269c-0.012,0.332-0.024,0.662-0.024,1.012c0,0.551,0.019,1.073,0.048,1.58    c-1.557-0.467-2.546-0.959-3.019-1.229C9.958,28.795,9.958,28.764,9.958,28.733z M10.062,30.045    c0.662,0.327,1.65,0.736,3.001,1.113c0.141,1.379,0.383,2.571,0.673,3.601c-1.589-0.632-2.47-1.289-2.733-1.507    C10.541,32.251,10.218,31.175,10.062,30.045z M12.126,35.173c0.545,0.277,1.214,0.566,2.013,0.839    c0.283,0.778,0.583,1.429,0.869,1.959C13.891,37.214,12.917,36.265,12.126,35.173z M17.969,25.45    c-1.504,0.146-2.807,0.372-3.903,0.636c0.146-1.604,0.43-2.953,0.765-4.063c1.027-0.318,2.275-0.593,3.751-0.753    C18.319,22.449,18.095,23.831,17.969,25.45z M18.685,35.937c-1.466-0.16-2.713-0.434-3.744-0.751    c-0.339-1.028-0.633-2.279-0.81-3.758c1.104,0.253,2.397,0.469,3.896,0.604C18.177,33.559,18.413,34.853,18.685,35.937z     M17.908,26.489c-0.029,0.618-0.052,1.256-0.052,1.935c0,0.916,0.032,1.769,0.086,2.567c-1.521-0.148-2.828-0.381-3.914-0.647    c-0.043-0.593-0.073-1.207-0.073-1.867c0-0.45,0.012-0.884,0.031-1.303C15.069,26.896,16.372,26.65,17.908,26.489z M16.934,39.021    c-0.202-0.23-0.879-1.075-1.539-2.63c1.025,0.268,2.22,0.484,3.585,0.608c0.42,1.366,0.871,2.303,1.193,2.866    C19.035,39.742,17.946,39.453,16.934,39.021z M21.606,26.3c0.733,0,1.413,0.024,2.068,0.062c0.042,0.704,0.071,1.437,0.071,2.225    c0,0.896-0.034,1.724-0.088,2.505c-0.698,0.042-1.427,0.07-2.215,0.07c-0.877,0-1.69-0.033-2.463-0.085    c-0.061-0.821-0.097-1.7-0.097-2.653c0-0.714,0.024-1.381,0.06-2.026C19.772,26.337,20.654,26.3,21.606,26.3z M19.01,25.364    c0.138-1.636,0.375-3.027,0.65-4.187c0.548-0.035,1.112-0.06,1.718-0.06c0.54,0,1.052,0.019,1.547,0.047    c0.282,1.145,0.526,2.53,0.673,4.159c-0.631-0.031-1.292-0.052-1.992-0.052C20.681,25.274,19.823,25.31,19.01,25.364z     M23.569,32.13c-0.158,1.554-0.404,2.855-0.685,3.924c-0.444,0.021-0.906,0.036-1.389,0.036c-0.603,0-1.167-0.025-1.714-0.062    c-0.286-1.062-0.542-2.359-0.707-3.919c0.747,0.046,1.527,0.078,2.368,0.078C22.192,32.189,22.898,32.167,23.569,32.13z     M21.368,39.841c-0.156-0.222-0.72-1.096-1.273-2.76c0.449,0.021,0.916,0.033,1.4,0.033c0.376,0,0.732-0.013,1.088-0.025    C22.104,38.575,21.609,39.464,21.368,39.841z M26.051,38.959c-1.093,0.482-2.273,0.803-3.513,0.922    c0.326-0.598,0.757-1.53,1.153-2.858c1.46-0.115,2.731-0.335,3.81-0.614C26.863,37.943,26.218,38.762,26.051,38.959z     M23.974,35.974c0.267-1.091,0.497-2.391,0.64-3.917c1.617-0.137,2.987-0.371,4.133-0.646c-0.18,1.505-0.474,2.769-0.81,3.805    C26.859,35.543,25.547,35.824,23.974,35.974z M24.706,26.433c1.663,0.146,3.057,0.394,4.19,0.682    c0.02,0.401,0.03,0.813,0.03,1.244c0,0.693-0.032,1.338-0.077,1.958c-1.123,0.291-2.502,0.546-4.154,0.697    c0.048-0.759,0.075-1.565,0.075-2.428C24.771,27.826,24.744,27.118,24.706,26.433z M24.639,25.393    c-0.135-1.607-0.364-2.981-0.633-4.146c1.631,0.164,2.987,0.47,4.098,0.819c0.317,1.087,0.583,2.4,0.72,3.965    C27.662,25.757,26.276,25.525,24.639,25.393z M27.951,37.892c0.265-0.508,0.54-1.124,0.805-1.862    c0.758-0.259,1.401-0.534,1.929-0.802C29.929,36.26,29.005,37.161,27.951,37.892z M31.834,33.283    c-0.286,0.241-1.146,0.891-2.689,1.507c0.289-1.042,0.533-2.253,0.675-3.664c1.409-0.417,2.385-0.874,2.984-1.208    C32.653,31.105,32.32,32.237,31.834,33.283z M29.902,30.013c0.03-0.53,0.051-1.076,0.051-1.654c0-0.329-0.013-0.639-0.021-0.952    c1.591,0.496,2.533,1.021,2.925,1.271C32.626,28.839,31.689,29.44,29.902,30.013z M32.005,24.022    c0.455,1.08,0.747,2.245,0.85,3.462c-0.623-0.337-1.599-0.776-2.982-1.178c-0.105-1.461-0.315-2.73-0.587-3.815    C31.046,23.202,31.906,23.935,32.005,24.022z M30.926,22.047l-0.021,0.05c-0.533-0.277-1.184-0.57-1.973-0.845    c-0.278-0.856-0.582-1.566-0.875-2.144C29.182,19.908,30.152,20.904,30.926,22.047z M26.166,18.017    c0.284,0.353,0.939,1.27,1.543,2.857c-1.115-0.303-2.436-0.549-3.97-0.678c-0.406-1.457-0.854-2.495-1.19-3.153    C23.827,17.169,25.044,17.506,26.166,18.017z M21.184,16.993c0.055,0,0.108-0.003,0.163-0.004c0.25,0.421,0.787,1.444,1.293,3.134    c-0.408-0.018-0.825-0.03-1.262-0.03c-0.499,0-0.979,0.013-1.441,0.035C20.397,18.541,20.896,17.51,21.184,16.993z M16.805,17.962    c0.992-0.438,2.058-0.739,3.173-0.88c-0.337,0.689-0.757,1.722-1.137,3.128c-1.378,0.126-2.576,0.346-3.601,0.617    C15.897,19.136,16.595,18.214,16.805,17.962z M14.913,19.021c-0.301,0.58-0.617,1.305-0.911,2.186    c-0.868,0.3-1.579,0.621-2.141,0.924C12.672,20.909,13.71,19.854,14.913,19.021z M10.849,24.012l0.019,0.019    c0.016-0.016,0.879-0.82,2.767-1.581c-0.283,1.106-0.505,2.413-0.618,3.911c-1.405,0.406-2.4,0.849-3.024,1.173    C10.091,26.294,10.385,25.11,10.849,24.012z M6.072,7.901l0.122,0.256L5.783,8.29C5.895,8.16,5.994,8.031,6.072,7.901z" fill="#FFFFFF"/>
	</g>
</g>
<g>
</g>
<g>
</g>
<g>
</g>
<g>
</g>
<g>
</g>
<g>
</g>
<g>
</g>
<g>
</g>
<g>
</g>
<g>
</g>
<g>
</g>
<g>
</g>
<g>
</g>
<g>
</g>
<g>
</g>
</svg>
